<svg id="visual" viewBox="0 0 900 450" width="900" height="450" xmlns="http://www.w3.org/2000/svg" xmlns:xlink="http://www.w3.org/1999/xlink" version="1.1"><path d="M0 78L13.7 79.5C27.3 81 54.7 84 82 87.7C109.3 91.3 136.7 95.7 163.8 93.3C191 91 218 82 245.2 81.3C272.3 80.7 299.7 88.3 327 93.7C354.3 99 381.7 102 409 99.7C436.3 97.3 463.7 89.7 491 98.7C518.3 107.7 545.7 133.3 573 154.3C600.3 175.3 627.7 191.7 654.8 184.8C682 178 709 148 736.2 131.5C763.3 115 790.7 112 818 120.3C845.3 128.7 872.7 148.3 886.3 158.2L900 168L900 0L886.3 0C872.7 0 845.3 0 818 0C790.7 0 763.3 0 736.2 0C709 0 682 0 654.8 0C627.7 0 600.3 0 573 0C545.7 0 518.3 0 491 0C463.7 0 436.3 0 409 0C381.7 0 354.3 0 327 0C299.7 0 272.3 0 245.2 0C218 0 191 0 163.8 0C136.7 0 109.3 0 82 0C54.7 0 27.3 0 13.7 0L0 0Z" fill="#fff373"></path><path d="M0 280L13.7 271C27.3 262 54.7 244 82 235.8C109.3 227.7 136.7 229.3 163.8 230.8C191 232.3 218 233.7 245.2 230.7C272.3 227.7 299.7 220.3 327 225.7C354.3 231 381.7 249 409 264C436.3 279 463.7 291 491 293.2C518.3 295.3 545.7 287.7 573 284.7C600.3 281.7 627.7 283.3 654.8 277.3C682 271.3 709 257.7 736.2 249.3C763.3 241 790.7 238 818 248.5C845.3 259 872.7 283 886.3 295L900 307L900 166L886.3 156.2C872.7 146.3 845.3 126.7 818 118.3C790.7 110 763.3 113 736.2 129.5C709 146 682 176 654.8 182.8C627.7 189.7 600.3 173.3 573 152.3C545.7 131.3 518.3 105.7 491 96.7C463.7 87.7 436.3 95.3 409 97.7C381.7 100 354.3 97 327 91.7C299.7 86.3 272.3 78.7 245.2 79.3C218 80 191 89 163.8 91.3C136.7 93.7 109.3 89.3 82 85.7C54.7 82 27.3 79 13.7 77.5L0 76Z" fill="#fff04e"></path><path d="M0 334L13.7 325.8C27.3 317.7 54.7 301.3 82 293.8C109.3 286.3 136.7 287.7 163.8 285.3C191 283 218 277 245.2 277C272.3 277 299.7 283 327 293.5C354.3 304 381.7 319 409 326.5C436.3 334 463.7 334 491 332.5C518.3 331 545.7 328 573 330.3C600.3 332.7 627.7 340.3 654.8 338.2C682 336 709 324 736.2 312C763.3 300 790.7 288 818 295.5C845.3 303 872.7 330 886.3 343.5L900 357L900 305L886.3 293C872.7 281 845.3 257 818 246.5C790.7 236 763.3 239 736.2 247.3C709 255.7 682 269.3 654.8 275.3C627.7 281.3 600.3 279.7 573 282.7C545.7 285.7 518.3 293.3 491 291.2C463.7 289 436.3 277 409 262C381.7 247 354.3 229 327 223.7C299.7 218.3 272.3 225.7 245.2 228.7C218 231.7 191 230.3 163.8 228.8C136.7 227.3 109.3 225.7 82 233.8C54.7 242 27.3 260 13.7 269L0 278Z" fill="#ffec12"></path><path d="M0 388L13.7 384.3C27.3 380.7 54.7 373.3 82 375.7C109.3 378 136.7 390 163.8 391.5C191 393 218 384 245.2 378C272.3 372 299.7 369 327 375C354.3 381 381.7 396 409 402C436.3 408 463.7 405 491 397.5C518.3 390 545.7 378 573 375C600.3 372 627.7 378 654.8 382.5C682 387 709 390 736.2 389.2C763.3 388.3 790.7 383.7 818 385.2C845.3 386.7 872.7 394.3 886.3 398.2L900 402L900 355L886.3 341.5C872.7 328 845.3 301 818 293.5C790.7 286 763.3 298 736.2 310C709 322 682 334 654.8 336.2C627.7 338.3 600.3 330.7 573 328.3C545.7 326 518.3 329 491 330.5C463.7 332 436.3 332 409 324.5C381.7 317 354.3 302 327 291.5C299.7 281 272.3 275 245.2 275C218 275 191 281 163.8 283.3C136.7 285.7 109.3 284.3 82 291.8C54.7 299.3 27.3 315.7 13.7 323.8L0 332Z" fill="#ddcd0e"></path><path d="M0 451L13.7 451C27.3 451 54.7 451 82 451C109.3 451 136.7 451 163.8 451C191 451 218 451 245.2 451C272.3 451 299.7 451 327 451C354.3 451 381.7 451 409 451C436.3 451 463.7 451 491 451C518.3 451 545.7 451 573 451C600.3 451 627.7 451 654.8 451C682 451 709 451 736.2 451C763.3 451 790.7 451 818 451C845.3 451 872.7 451 886.3 451L900 451L900 400L886.3 396.2C872.7 392.3 845.3 384.7 818 383.2C790.7 381.7 763.3 386.3 736.2 387.2C709 388 682 385 654.8 380.5C627.7 376 600.3 370 573 373C545.7 376 518.3 388 491 395.5C463.7 403 436.3 406 409 400C381.7 394 354.3 379 327 373C299.7 367 272.3 370 245.2 376C218 382 191 391 163.8 389.5C136.7 388 109.3 376 82 373.7C54.7 371.3 27.3 378.7 13.7 382.3L0 386Z" fill="#bcae0a"></path></svg>