<?xml version="1.0" ?><svg viewBox="0 0 512 512" xmlns="http://www.w3.org/2000/svg"><defs><style>.cls-1{fill:#f0a5a5;}.cls-2{fill:#cc8c8c;}.cls-3{fill:#f50057;}.cls-4{fill:#f50057;}.cls-5{fill:#f9b7b7;}.cls-6{fill:#d49c9c;}.cls-7{fill:#ec9090;}.cls-8{fill:#ea8383;}.cls-9{fill:#d27676;}</style></defs><g data-name="/ FILLED_OUTLINE" id="_FILLED_OUTLINE"><rect class="cls-1" height="80" width="112" x="200" y="272"/><path class="cls-2" d="M232,352h80V272A80.00005,80.00005,0,0,1,232,352Z"/><path class="cls-3" d="M460.75635,408.81982a80.00071,80.00071,0,0,0-53.78516-52.8872L312,328h0a112.87137,112.87137,0,0,1-112,0h0l-94.97119,27.93262a80.00071,80.00071,0,0,0-53.78516,52.8872l-7.76966,24.863A48,48,0,0,0,89.28905,496H422.711A48,48,0,0,0,468.526,433.68287Z"/><path class="cls-4" d="M468.52588,433.68286l-7.76953-24.863q-1.19238-3.81518-2.74756-7.45214A199.85662,199.85662,0,0,1,288,496H422.71094A47.99976,47.99976,0,0,0,468.52588,433.68286Z"/><path class="cls-1" d="M175.35795,203.492,151.95126,234.701a16.45442,16.45442,0,0,1-27.88081-2.514l0,0a16.45441,16.45441,0,0,1,.70374-15.98235l51.65968-83.947a14.92549,14.92549,0,0,0-4.43224-20.24116l0,0a14.92548,14.92548,0,0,0-20.42453,3.7435L103.594,182.93618a79.7924,79.7924,0,0,0-10.768,71.611l0,.00008a79.79237,79.79237,0,0,1-6.07836,64.21939l-56.888,101.58572C12.8962,450.64424,34.7913,488,69.5096,488h.00011a45.44372,45.44372,0,0,0,43.76067-33.19074L159.977,288l40.55044-67.58406a15.18525,15.18525,0,0,0-4.598-20.44764h0A15.18525,15.18525,0,0,0,175.35795,203.492Z"/><path class="cls-1" d="M336.64205,203.492,360.04874,234.701a16.45442,16.45442,0,0,0,27.88081-2.514l0,0a16.45441,16.45441,0,0,0-.70374-15.98235l-51.65968-83.947a14.92549,14.92549,0,0,1,4.43224-20.24116l0,0a14.92548,14.92548,0,0,1,20.42453,3.7435L408.406,182.93618a79.7924,79.7924,0,0,1,10.768,71.611l0,.00008a79.79237,79.79237,0,0,0,6.07836,64.21939l56.888,101.58572C499.1038,450.64424,477.2087,488,442.4904,488h-.00011a45.44372,45.44372,0,0,1-43.76067-33.19074L352.023,288l-40.55044-67.58406a15.18525,15.18525,0,0,1,4.598-20.44764h0A15.18525,15.18525,0,0,1,336.64205,203.492Z"/><path class="cls-5" d="M152,88V206.76929a79.99994,79.99994,0,0,0,51.28174,74.6676l24,9.23083a80.00155,80.00155,0,0,0,57.43652,0l24-9.23083A79.99994,79.99994,0,0,0,360,206.76929V72Z"/><path class="cls-6" d="M215.46875,286.12427l11.813,4.54345a80.00155,80.00155,0,0,0,57.43652,0l24-9.23083A79.99994,79.99994,0,0,0,360,206.76929V136l-5.19043-1.62195A208.378,208.378,0,0,1,215.46875,286.12427Z"/><polygon class="cls-7" points="232 96 360 136 360 64 232 96"/><path class="cls-8" d="M264,216h-7.05566a22.47218,22.47218,0,0,1-17.97754-35.95557l18.63281-24.84472,12.80078,9.60058L251.7666,189.64453A6.472,6.472,0,0,0,256.94434,200H264Z"/><rect class="cls-8" height="40" transform="translate(-48 232) rotate(-53.1301)" width="15.99961" x="200.0002" y="144"/><rect class="cls-8" height="15.99961" transform="translate(-37.60062 215.19583) rotate(-36.8692)" width="40" x="284" y="156.0002"/><rect class="cls-8" height="16.00011" transform="translate(-82.09914 140.2649) rotate(-26.56818)" width="53.66563" x="229.16718" y="235.99994"/><path class="cls-9" d="M345.25567,82.907,152,128V80a56,56,0,0,1,56-56H392v.00005A60.48928,60.48928,0,0,1,345.25567,82.907Z"/><polygon class="cls-3" points="223.155 139.578 208.845 132.422 228.72 92.672 204.72 84.672 224.845 44.422 239.155 51.578 227.28 75.328 251.28 83.328 223.155 139.578"/><path class="cls-1" d="M152,171.96252V115.22559a14.91579,14.91579,0,0,1,24.43359,17.032Z"/><path class="cls-2" d="M400.98242,461.03857A45.44282,45.44282,0,0,0,442.49023,488h0c34.71827,0,56.61377-37.35571,39.64991-67.64771l-17.29541-30.88476A200.92373,200.92373,0,0,1,400.98242,461.03857Z"/><path class="cls-1" d="M360,171.96252V115.22559a14.91579,14.91579,0,0,0-24.43359,17.032Z"/><path d="M256.94434,216H264V200h-7.05566a6.472,6.472,0,0,1-5.17774-10.35547l18.63379-24.84424-12.80078-9.60058L238.9668,180.04443A22.47218,22.47218,0,0,0,256.94434,216Z"/><rect height="40" transform="translate(-47.99917 232.00313) rotate(-53.1308)" width="15.99961" x="200.0002" y="144"/><rect height="15.99961" transform="translate(-37.60062 215.19583) rotate(-36.8692)" width="40" x="284" y="156.0002"/><rect height="16.00011" transform="translate(-82.09914 140.2649) rotate(-26.56818)" width="53.66563" x="229.16718" y="235.99994"/><path d="M489.09766,416.44385,432.21,314.85742a71.93306,71.93306,0,0,1-5.46875-57.78027,88.061,88.061,0,0,0-11.84863-78.791L368,112.63574V82.00684A68.17589,68.17589,0,0,0,400,24V16H208a64.07239,64.07239,0,0,0-64,64v32.60425L97.084,178.28613a88.05519,88.05519,0,0,0-11.84765,78.791,71.94228,71.94228,0,0,1-5.46875,57.78076L22.87891,416.44385A53.45285,53.45285,0,0,0,64,495.72266V496H440v-.06177c.81934.03809,1.6416.06177,2.46777.06177a53.44371,53.44371,0,0,0,46.62989-79.55615ZM352,101.79419a23.02331,23.02331,0,0,0-25.55859,15.51025l-40.28028-12.3938,60.91309-14.21289c1.67139-.39013,3.31006-.84961,4.92578-1.35327ZM368,206.769v-6.50488L380.38965,220.397a8.45484,8.45484,0,0,1-13.96387,9.50489l-1.125-1.50025A88.069,88.069,0,0,0,368,206.769Zm-16,0a72.43123,72.43123,0,0,1-46.15332,67.20117l-24,9.23047a71.88215,71.88215,0,0,1-51.69336,0l-24-9.23047A72.43123,72.43123,0,0,1,160,206.769v-32.5415l23.24707-37.77686a23.01881,23.01881,0,0,0,3.10791-8.25219L214.20605,121.7l-5.36132,10.72241,14.31054,7.15528,11.30127-22.60279L255.22046,112.13l72.387,22.273q.50538,1.03986,1.12207,2.04773L352,174.26465ZM176.88062,275.37646A87.503,87.503,0,0,0,192,285.147V322.014L155.7771,332.668l11.61255-41.47461ZM304,323.22668a105.35447,105.35447,0,0,1-96,0V291.82324l16.40918,6.311a87.85842,87.85842,0,0,0,63.18164,0L304,291.82324ZM150.68848,350.84241l48.36718-14.22571a121.42044,121.42044,0,0,0,113.88868,0L361.28662,350.835l29.71631,106.13086A53.19346,53.19346,0,0,0,404.40234,480H107.57446a53.19623,53.19623,0,0,0,13.40015-23.03369ZM320,322.014V285.147a87.49223,87.49223,0,0,0,15.10352-9.75757l9.48339,15.804,11.61084,41.46716Zm-173.30664-93.636-1.14258,1.52332a8.45409,8.45409,0,0,1-13.96289-9.50391L144,200.22766V206.769A88.06885,88.06885,0,0,0,146.69336,228.37805ZM208,32H383.39941a52.24259,52.24259,0,0,1-39.96093,43.1167l-99.68213,23.259,7.52392-15.04809-24-8,11.875-23.75-14.31054-7.15528-20.125,40.25,24,8-5.21436,10.42847-40.21973,9.38452A22.97333,22.97333,0,0,0,160,101.79175V80A48.054,48.054,0,0,1,208,32ZM37.20605,461.49023a37.09145,37.09145,0,0,1-.36621-37.229L93.72852,322.67529a87.97614,87.97614,0,0,0,6.6875-70.65771,72.008,72.008,0,0,1,9.6875-64.43164l47.98339-67.17578a6.92522,6.92522,0,0,1,11.53321,7.65478l-51.65821,83.94629A24.46779,24.46779,0,0,0,152.709,244.95459a87.98338,87.98338,0,0,0,12.38428,18.96851l-12.52978,20.88354L105.56641,452.65186A37.56944,37.56944,0,0,1,69.50977,480,37.09322,37.09322,0,0,1,37.20605,461.49023Zm437.56543-.00048A37.09522,37.09522,0,0,1,442.4668,480a37.566,37.566,0,0,1-36.05567-27.34814l-46.707-166.80909-.291-1.03613-12.52-20.86719a88.01979,88.01979,0,0,0,12.39306-18.97387,24.46434,24.46434,0,0,0,34.73047-32.95386l-51.66015-83.94629a6.92594,6.92594,0,0,1,11.53417-7.65576l47.98243,67.17627a72.01062,72.01062,0,0,1,9.68945,64.43115,87.96507,87.96507,0,0,0,6.68652,70.6582L475.1377,424.26123A37.09525,37.09525,0,0,1,474.77148,461.48975Z"/></g></svg>