<svg id="visual" viewBox="0 0 900 600" width="900" height="600" xmlns="http://www.w3.org/2000/svg" xmlns:xlink="http://www.w3.org/1999/xlink" version="1.1"><rect x="0" y="0" width="900" height="600" fill="#fff"></rect><defs><linearGradient id="grad1_0" x1="33.3%" y1="0%" x2="100%" y2="100%"><stop offset="20%" stop-color="#ffffff" stop-opacity="1"></stop><stop offset="80%" stop-color="#ffffff" stop-opacity="1"></stop></linearGradient></defs><defs><linearGradient id="grad2_0" x1="0%" y1="0%" x2="66.7%" y2="100%"><stop offset="20%" stop-color="#ffffff" stop-opacity="1"></stop><stop offset="80%" stop-color="#ffffff" stop-opacity="1"></stop></linearGradient></defs><g transform="translate(900, 0)"><path d="M0 351.5C-40.3 325.5 -80.6 299.6 -114.8 277.2C-149 254.8 -177.1 236 -215 215C-252.8 193.9 -300.4 170.7 -324.8 134.5C-349.2 98.3 -350.4 49.2 -351.5 0L0 0Z" fill="#f50057"></path></g><g transform="translate(0, 600)"><path d="M0 -351.5C43.7 -343 87.3 -334.4 132.4 -319.7C177.5 -304.9 224 -283.9 248.6 -248.6C273.1 -213.3 275.7 -163.6 289.2 -119.8C302.7 -76 327.1 -38 351.5 0L0 0Z" fill="#f50057"></path></g></svg>