<svg id="visual" viewBox="0 0 900 450" width="900" height="450" xmlns="http://www.w3.org/2000/svg" xmlns:xlink="http://www.w3.org/1999/xlink" version="1.1"><rect x="0" y="0" width="900" height="450" fill="#fff"></rect><path d="M0 118L21.5 127.5C43 137 86 156 128.8 159.8C171.7 163.7 214.3 152.3 257.2 145.3C300 138.3 343 135.7 385.8 131C428.7 126.3 471.3 119.7 514.2 122.3C557 125 600 137 642.8 143.5C685.7 150 728.3 151 771.2 151.5C814 152 857 152 878.5 152L900 152L900 0L878.5 0C857 0 814 0 771.2 0C728.3 0 685.7 0 642.8 0C600 0 557 0 514.2 0C471.3 0 428.7 0 385.8 0C343 0 300 0 257.2 0C214.3 0 171.7 0 128.8 0C86 0 43 0 21.5 0L0 0Z" fill="#ffec12"></path><path d="M0 138L21.5 139.3C43 140.7 86 143.3 128.8 141.7C171.7 140 214.3 134 257.2 133.5C300 133 343 138 385.8 135.2C428.7 132.3 471.3 121.7 514.2 120.7C557 119.7 600 128.3 642.8 131.2C685.7 134 728.3 131 771.2 128C814 125 857 122 878.5 120.5L900 119L900 0L878.5 0C857 0 814 0 771.2 0C728.3 0 685.7 0 642.8 0C600 0 557 0 514.2 0C471.3 0 428.7 0 385.8 0C343 0 300 0 257.2 0C214.3 0 171.7 0 128.8 0C86 0 43 0 21.5 0L0 0Z" fill="#ffd802"></path><path d="M0 78L21.5 76.7C43 75.3 86 72.7 128.8 79C171.7 85.3 214.3 100.7 257.2 108.7C300 116.7 343 117.3 385.8 108.8C428.7 100.3 471.3 82.7 514.2 80.3C557 78 600 91 642.8 91.8C685.7 92.7 728.3 81.3 771.2 80.8C814 80.3 857 90.7 878.5 95.8L900 101L900 0L878.5 0C857 0 814 0 771.2 0C728.3 0 685.7 0 642.8 0C600 0 557 0 514.2 0C471.3 0 428.7 0 385.8 0C343 0 300 0 257.2 0C214.3 0 171.7 0 128.8 0C86 0 43 0 21.5 0L0 0Z" fill="#ffc400"></path><path d="M0 42L21.5 44.8C43 47.7 86 53.3 128.8 56.5C171.7 59.7 214.3 60.3 257.2 64C300 67.7 343 74.3 385.8 75.3C428.7 76.3 471.3 71.7 514.2 72.2C557 72.7 600 78.3 642.8 80.8C685.7 83.3 728.3 82.7 771.2 76.3C814 70 857 58 878.5 52L900 46L900 0L878.5 0C857 0 814 0 771.2 0C728.3 0 685.7 0 642.8 0C600 0 557 0 514.2 0C471.3 0 428.7 0 385.8 0C343 0 300 0 257.2 0C214.3 0 171.7 0 128.8 0C86 0 43 0 21.5 0L0 0Z" fill="#ffb000"></path><path d="M0 43L21.5 39.7C43 36.3 86 29.7 128.8 27.5C171.7 25.3 214.3 27.7 257.2 28.8C300 30 343 30 385.8 33.7C428.7 37.3 471.3 44.7 514.2 43.5C557 42.3 600 32.7 642.8 29.5C685.7 26.3 728.3 29.7 771.2 34.2C814 38.7 857 44.3 878.5 47.2L900 50L900 0L878.5 0C857 0 814 0 771.2 0C728.3 0 685.7 0 642.8 0C600 0 557 0 514.2 0C471.3 0 428.7 0 385.8 0C343 0 300 0 257.2 0C214.3 0 171.7 0 128.8 0C86 0 43 0 21.5 0L0 0Z" fill="#ff9c02"></path></svg>